<?xml version="1.0" encoding="utf-8"?>
<!-- Generator: Adobe Illustrator 16.0.0, SVG Export Plug-In . SVG Version: 6.00 Build 0)  -->
<!DOCTYPE svg PUBLIC "-//W3C//DTD SVG 1.1//EN" "http://www.w3.org/Graphics/SVG/1.1/DTD/svg11.dtd">
<svg version="1.1" id="Capa_1" xmlns="http://www.w3.org/2000/svg" xmlns:xlink="http://www.w3.org/1999/xlink" x="0px" y="0px"
	 width="48px" height="48px" viewBox="0 0 48 48" enable-background="new 0 0 48 48" xml:space="preserve">
<g>
	<path fill="#EEE49A" d="M38.882,0.752L28.319,11.313c0,0-3.213,0.308-4.622,0.427c-1.408,0.116-3.044,1.767-3.572,3.586
		c-0.529,1.818-0.84,5.848,4.57,7.269c0,0,1.244,5.584,5.41,4.939c4.166-0.646,5.402-2.812,5.579-4.512
		c0.177-1.703,0.239-4.457,0.239-4.457L46.309,8.18L38.882,0.752z"/>
	<path d="M29.449,28.128c-3.501,0-4.869-3.92-5.2-5.094c-2.012-0.587-3.434-1.594-4.229-2.998c-1.091-1.926-0.654-4.042-0.415-4.861
		c0.597-2.057,2.413-3.84,4.048-3.975c1.198-0.102,3.706-0.339,4.421-0.408L38.882-0.015l8.193,8.194L36.46,18.795
		c-0.019,0.69-0.086,2.838-0.236,4.283c-0.129,1.239-0.975,4.206-6.035,4.991C29.933,28.109,29.687,28.128,29.449,28.128z
		 M38.882,1.519L28.564,11.834l-0.193,0.019c0,0-3.217,0.308-4.627,0.427c-1.185,0.098-2.631,1.592-3.098,3.197
		c-0.2,0.688-0.57,2.458,0.317,4.025c0.686,1.21,1.987,2.074,3.87,2.568l0.318,0.084l0.073,0.322
		c0.011,0.049,1.188,5.075,4.798,4.523c4.16-0.646,4.995-2.804,5.123-4.033c0.173-1.661,0.236-4.386,0.236-4.413l0.005-0.217
		L45.542,8.18L38.882,1.519z"/>
</g>
<g>
	<path fill="#EEE49A" d="M0.997,40.122l11.402-11.4c0,0,0.699-1.415,0.581-4.113c-0.115-2.701-0.236-5.402,2.828-6.325
		c3.065-0.923,1.524,1.288,1.993,2.58c0.469,1.291,1.342,2.516,3.044,2.808c1.701,0.294,2.519,1.346,3.047,3.049
		c0.528,1.701,1.229,2.052,2.872,2.401c1.644,0.354,3.461,0.881,2.64,2.406c-0.823,1.525-2.344,2.584-5.219,2.879
		c-2.876,0.295-4.222,0.121-5.746,1.647C16.914,37.577,7.682,46.809,7.682,46.809L0.997,40.122z"/>
	<path d="M7.682,47.575L0.23,40.122L11.944,28.41c0.125-0.307,0.59-1.604,0.495-3.778c-0.117-2.738-0.249-5.825,3.213-6.868
		c1.229-0.371,1.933-0.315,2.354,0.148c0.399,0.439,0.339,1.062,0.281,1.664c-0.039,0.403-0.079,0.819,0.024,1.103
		c0.524,1.441,1.383,2.245,2.626,2.458c2.258,0.391,3.042,2.034,3.473,3.422c0.442,1.424,0.896,1.698,2.467,2.032
		c1.284,0.276,2.691,0.652,3.137,1.616c0.22,0.476,0.175,1.006-0.133,1.577c-0.993,1.84-2.838,2.874-5.641,3.161
		c-0.49,0.051-0.936,0.087-1.346,0.121c-1.961,0.161-2.946,0.242-4.072,1.37C17.296,37.961,8.065,47.191,8.065,47.191L7.682,47.575z
		 M1.764,40.122l5.918,5.92c1.76-1.76,9.035-9.035,10.375-10.372c1.406-1.408,2.736-1.519,4.75-1.684
		c0.403-0.034,0.842-0.069,1.324-0.119c2.452-0.252,3.976-1.077,4.797-2.598c0.206-0.384,0.129-0.553,0.104-0.607
		c-0.256-0.554-1.8-0.886-2.381-1.011c-1.823-0.389-2.681-0.859-3.275-2.771c-0.524-1.689-1.26-2.44-2.622-2.676
		c-1.637-0.281-2.802-1.343-3.461-3.157c-0.187-0.514-0.132-1.079-0.084-1.577c0.025-0.257,0.071-0.737-0.005-0.831l0,0
		c0,0-0.494-0.063-1.238,0.162c-2.655,0.8-2.557,3.102-2.443,5.768c0.124,2.819-0.605,4.328-0.636,4.392l-0.103,0.143L1.764,40.122z
		"/>
</g>
</svg>
