<?xml version="1.0" encoding="utf-8"?>
<!-- Generator: Adobe Illustrator 16.0.0, SVG Export Plug-In . SVG Version: 6.00 Build 0)  -->
<!DOCTYPE svg PUBLIC "-//W3C//DTD SVG 1.1//EN" "http://www.w3.org/Graphics/SVG/1.1/DTD/svg11.dtd">
<svg version="1.1" id="Capa_1" xmlns="http://www.w3.org/2000/svg" xmlns:xlink="http://www.w3.org/1999/xlink" x="0px" y="0px"
	 width="48px" height="48px" viewBox="0 0 48 48" enable-background="new 0 0 48 48" xml:space="preserve">
<g>
	<path fill="#E94F3D" d="M24.208,11.371c0,0-2.231-10.158-13.011-9.639C0.418,2.25,0.107,11.682,1.662,18.937
		c1.555,7.256,22.546,27.778,22.546,27.778s19.31-18.291,21.917-26.741c0,0,4.871-13.785-5.805-17.723
		C29.646-1.689,24.208,11.371,24.208,11.371z"/>
	<path d="M24.202,47.468l-0.374-0.364C22.966,46.262,2.702,26.383,1.131,19.051C0.215,14.775-0.253,8.868,2.721,5.003
		c1.806-2.348,4.649-3.63,8.45-3.813c8.674-0.413,12.058,5.884,13.138,8.721c1.437-2.733,5.434-8.943,12.085-8.943
		c1.338,0,2.723,0.26,4.113,0.774c11.051,4.076,6.18,18.271,6.129,18.413c-2.611,8.467-21.263,26.205-22.056,26.955L24.202,47.468z
		 M11.987,2.255c-0.25,0-0.504,0.006-0.764,0.019C7.755,2.44,5.184,3.582,3.581,5.665C0.86,9.201,1.324,14.772,2.193,18.823
		c1.391,6.492,19.2,24.34,22.021,27.135c2.71-2.608,19.058-18.573,21.394-26.144c0.197-0.563,4.57-13.348-5.475-17.054
		c-1.271-0.469-2.529-0.708-3.738-0.708c-7.631,0-11.646,9.432-11.686,9.527l-0.659,1.583l-0.372-1.674
		C23.594,11.111,21.517,2.255,11.987,2.255z"/>
</g>
<g>
	<polygon points="25.262,36.527 17.079,16.023 13.82,25 4.521,24.992 4.522,23.992 13.12,24 17.035,13.215 25.236,33.766 28.922,24 
		44,24 44,25 29.613,25 	"/>
</g>
</svg>
